<svg width="502" height="329" viewBox="0 0 502 329" fill="none" xmlns="http://www.w3.org/2000/svg">
<path d="M269.887 291.71C269.078 291.529 269.24 291.503 269.015 291.676L269.887 291.71Z" fill="#FFAF9B"/>
<path d="M282.325 99.6447C276.922 117.066 259.12 137.241 241.706 142.66C234.52 144.895 221.127 142.739 220.1 133.437C219.487 127.843 222.773 122.847 226.105 118.662C224.557 114.644 223.226 110.546 222.118 106.385C212.895 110.836 195.618 110.57 197.24 96.3448C195.602 95.9987 193.996 95.6103 192.392 95.1268C189.346 105.906 178.204 111.428 168.402 104.741C160.305 115.342 152.873 126.434 146.148 137.954C157.53 144.451 169.206 150.396 181.095 155.894C193.97 202.111 217.399 244.643 229.928 290.974C242.982 290.279 256.253 288.845 269.163 291.561C278.027 284.921 292.849 281.072 299.633 274.821C309.118 266.089 315.2 254.369 322.091 243.645C329.333 232.334 337.201 221.303 345.14 210.476C340.852 207.248 336.95 203.528 332.688 200.233C340.086 187.107 349.069 175.044 357.021 162.264C363.627 151.696 369.672 139.278 379.812 131.571C354.295 112.908 314.355 92.6116 282.325 99.6447ZM331.053 202.923L329.016 206.798C328.895 206.981 328.737 207.137 328.553 207.255C328.369 207.374 328.162 207.453 327.946 207.488C327.251 207.583 327.119 207.39 324.775 205.884C324.186 205.448 310.299 195.242 302.318 188.65C300.135 186.843 299.108 185.744 296.785 183.509C296.661 183.419 296.556 183.305 296.477 183.173C296.397 183.042 296.345 182.896 296.324 182.744C296.302 182.592 296.312 182.437 296.351 182.289C296.391 182.14 296.46 182.001 296.555 181.881C296.65 181.76 296.768 181.659 296.902 181.585C297.036 181.511 297.184 181.464 297.337 181.448C297.49 181.433 297.644 181.448 297.791 181.493C297.937 181.539 298.074 181.613 298.191 181.712C299.311 182.407 301.89 183.945 304.233 185.604C306.307 187.097 324.82 201.171 327.599 203.744C328.231 203.044 328.902 202.37 329.586 201.742C329.751 201.576 329.971 201.477 330.204 201.465C330.438 201.452 330.667 201.527 330.849 201.674C331.03 201.821 331.151 202.03 331.187 202.26C331.223 202.491 331.18 202.727 331.053 202.923Z" fill="#FFAF9B"/>
<path d="M280.437 100.744C279.249 98.7863 274.625 99.6265 274.06 99.2778C273.322 98.7494 269.518 88.4903 267.536 84.8231C267.436 84.6382 267.333 84.4585 267.232 84.2762C271.415 74.5006 264.326 59.7051 253.494 64.9205C250.3 66.4977 247.79 69.185 246.434 72.4794C246.299 72.7475 246.276 73.0581 246.371 73.343C246.465 73.6279 246.668 73.8637 246.936 73.9986C247.204 74.1335 247.515 74.1564 247.8 74.0622C248.085 73.9681 248.321 73.7647 248.455 73.4966C250.068 71.1306 252.331 69.2816 254.971 68.1729C260.08 65.9958 263.357 69.8664 264.366 75.1981C265.568 81.5073 263.156 87.6554 256.54 86.802C254.828 86.7081 253.138 86.3718 251.52 85.8033C251.303 85.6821 251.046 85.6521 250.807 85.72C250.568 85.7879 250.365 85.948 250.244 86.1653C250.123 86.3825 250.093 86.639 250.161 86.8783C250.229 87.1176 250.389 87.3201 250.606 87.4414C253.541 89.5031 257.131 90.4151 260.693 90.0042C262.379 89.6681 263.916 88.8125 265.09 87.5576C266.605 92.0261 268.404 96.3934 270.474 100.633C270.9 101.469 271.584 102.146 272.426 102.562C273.267 102.979 274.219 103.113 275.143 102.945C276.102 102.79 277.048 102.562 277.972 102.263C278.107 102.234 278.955 101.975 279.095 102.065C279.182 102.153 279.285 102.223 279.399 102.272C279.513 102.32 279.635 102.345 279.759 102.346C279.883 102.347 280.005 102.324 280.12 102.277C280.234 102.231 280.339 102.162 280.427 102.076C280.515 101.989 280.585 101.886 280.633 101.772C280.682 101.658 280.707 101.536 280.708 101.412C280.709 101.288 280.686 101.166 280.639 101.051C280.593 100.937 280.524 100.832 280.437 100.744Z" fill="#191919"/>
<path d="M215.503 62.9543C216.525 59.9661 219.778 59.62 221.051 62.0137C222.423 64.6055 220.523 68.8672 217.281 67.8051C216.842 67.608 216.446 67.325 216.118 66.9729C215.79 66.6207 215.536 66.2064 215.37 65.7543C215.204 65.3023 215.131 64.8217 215.153 64.3409C215.176 63.86 215.295 63.3885 215.503 62.9543Z" fill="#191919"/>
<path d="M210.267 90.8255C209.999 90.9362 209.7 90.9401 209.429 90.8366C209.159 90.733 208.939 90.5298 208.814 90.2688C208.689 90.0078 208.669 89.7089 208.758 89.4335C208.847 89.1582 209.038 88.9273 209.292 88.7885C211.716 87.1562 214.012 85.3421 216.161 83.3617C222.32 77.9138 221.823 76.5664 223.445 76.458C226.145 76.2282 227.567 82.2705 228.312 84.4133C229.253 86.9378 229.875 89.5704 230.161 92.2496C230.822 101.328 223.63 103.547 217.046 98.72C215.49 97.5575 210.621 92.5878 210.267 90.8255ZM223.392 81.3591C220.847 84.2543 217.851 86.7193 214.52 88.659C211.527 90.3949 211.841 89.8744 212.026 90.2443C212.823 91.1349 213.718 91.9326 214.695 92.6221C216.817 94.6049 219.294 96.1715 221.995 97.2404C223.353 97.6869 225.192 97.6949 225.841 96.4293C227.361 93.5468 225.841 88.6802 224.785 85.6154C224.243 84.0328 224.336 83.8769 223.392 81.3591Z" fill="#191919"/>
<path d="M348.397 208.896C344.397 205.389 340.056 202.291 335.438 199.649C335.306 199.582 335.188 199.489 335.091 199.376C334.994 199.263 334.921 199.132 334.875 198.991C334.829 198.85 334.811 198.701 334.822 198.553C334.834 198.404 334.874 198.26 334.941 198.127C335.009 197.995 335.102 197.877 335.214 197.78C335.327 197.683 335.458 197.61 335.599 197.564C335.741 197.518 335.89 197.5 336.038 197.511C336.186 197.523 336.331 197.563 336.463 197.631C341.859 200.24 346.921 203.491 351.539 207.311C351.823 207.554 352.015 207.887 352.084 208.255C352.153 208.622 352.095 209.002 351.919 209.332C344.392 223.745 335.702 235.224 325.235 250.432C321.092 256.48 316.907 263.463 312.386 269.286C299.44 285.976 273.672 288.993 263.606 306.296C263.491 306.515 263.293 306.68 263.056 306.754C262.819 306.828 262.563 306.805 262.343 306.689C262.123 306.574 261.958 306.376 261.885 306.139C261.811 305.903 261.834 305.646 261.949 305.426C271.82 285.159 297.065 283.096 309.419 266.992C313.911 261.204 317.874 254.575 322.164 248.318C330.548 236.191 340.149 223.203 348.397 208.896Z" fill="#191919"/>
<path d="M279.877 306.673C285.159 301.72 291.157 297.593 297.669 294.43C299.519 293.693 300.161 293.764 300.147 292.895C300.124 291.492 296.66 291.777 295.529 291.954C291.204 292.633 285.753 297.127 282.284 299.727C280.645 300.9 279.179 302.297 277.928 303.878C277.05 305.172 275.106 308.541 276.786 309.194C277.893 309.64 277.856 308.766 279.877 306.673Z" fill="#191919"/>
<path d="M293.295 309.976C300.236 303.035 303.517 302.665 308.104 299.812C310.872 298.071 311.026 297.878 310.822 297.222C310.574 296.43 309.874 296.514 307.784 296.789C302.439 297.629 293.057 303.524 290.793 308.346C290.127 309.738 289.472 311.114 290.529 311.701C291.467 312.182 291.739 311.534 293.295 309.976Z" fill="#191919"/>
<path d="M377.965 139.444C392.002 146.536 408.287 160.433 415.648 175.905C419.46 183.646 421.029 192.299 420.179 200.885C418.737 214.933 408.573 230.569 395.973 245.161C374.67 269.838 339.866 297.5 328.838 303.442C317.213 309.754 306.576 306.633 298.283 315.033C298.105 315.205 298.002 315.442 297.998 315.69C297.994 315.938 298.089 316.178 298.262 316.356C298.434 316.535 298.671 316.637 298.919 316.641C299.167 316.645 299.407 316.55 299.585 316.377C301.985 314.222 304.888 312.703 308.027 311.96C319.192 308.94 323.351 312.198 340.26 300.197C368.052 280.002 420.385 235.663 423.868 201.266C426.692 173.123 404.388 149.445 378.979 137.418C378.847 137.352 378.702 137.313 378.555 137.303C378.407 137.293 378.259 137.312 378.119 137.359C377.979 137.407 377.849 137.481 377.738 137.578C377.626 137.676 377.535 137.794 377.469 137.926C377.403 138.059 377.364 138.203 377.354 138.351C377.344 138.498 377.363 138.647 377.411 138.787C377.458 138.927 377.532 139.057 377.63 139.168C377.727 139.279 377.832 139.379 377.965 139.444Z" fill="#191919"/>
<path d="M297.217 64.6533C296.711 61.6382 295.601 58.7563 293.954 56.1803C292.952 54.6704 291.626 53.4031 290.072 52.4707C288.518 51.5383 286.775 50.9643 284.971 50.7905C283.438 41.137 279.996 31.8858 274.847 23.5773C259.33 -1.59359 235.494 -4.95692 221.493 5.71434C218.722 7.8729 214.936 10.7157 214.888 14.2587C214.878 14.4067 214.897 14.5552 214.945 14.6958C214.992 14.8364 215.067 14.9662 215.164 15.078C215.262 15.1897 215.38 15.2812 215.513 15.3471C215.646 15.413 215.791 15.4521 215.939 15.4622C216.087 15.4723 216.235 15.4531 216.376 15.4057C216.516 15.3584 216.646 15.2839 216.758 15.1863C216.983 14.9894 217.122 14.7108 217.142 14.412C217.433 11.9496 221.396 9.54796 223.338 8.26921C235.565 0.0524116 254.149 2.08415 268.379 20.7054C274.792 29.8865 279.672 40.0479 282.829 50.7931C277.764 50.55 273.008 55.6254 271.048 60.3045C268.377 67.1738 268.337 76.6562 272.282 82.8782C273.748 85.2553 275.912 87.1214 278.479 88.221C281.046 89.3206 283.891 89.6 286.623 89.021C296.707 87.6075 299.125 74.6535 297.217 64.6533ZM286.094 85.3036C284.073 85.7567 281.961 85.5745 280.047 84.782C278.133 83.9894 276.511 82.6251 275.402 80.8755C271.312 74.5003 271.756 60.9862 278.588 55.1446C278.672 55.2525 278.779 55.3405 278.901 55.4024C279.023 55.4642 279.158 55.4984 279.294 55.5024C279.431 55.5065 279.567 55.4803 279.693 55.4257C279.818 55.3712 279.93 55.2896 280.02 55.1868C280.631 54.5198 281.395 54.0114 282.246 53.7053C283.097 53.3992 284.01 53.3047 284.905 53.4299C274.086 56.8117 274.636 76.4158 282.158 79.9508C283.765 80.7132 285.577 80.9285 287.318 80.5638C287.566 80.5495 287.8 80.4372 287.966 80.2515C288.132 80.0659 288.218 79.8219 288.205 79.573C288.126 77.964 286.15 79.573 283.339 76.82C279.339 72.9414 279.738 63.327 282.58 59.4564C284.203 57.1842 287.941 55.2291 290.242 56.8989C296.073 64.2597 295.888 83.9615 286.094 85.3036Z" fill="#191919"/>
<path d="M274.808 47.2025C274.434 46.0123 273.969 44.8526 273.418 43.7334C270.129 35.2453 265.048 27.5664 258.522 21.2205C252.908 16.4102 245.83 13.645 238.442 13.3762C226.305 13.046 221.599 20.0897 221.227 20.383C220.874 20.6139 220.603 20.9505 220.453 21.3447C211.591 17.5348 202.167 18.2561 195.11 17.5771C177.059 14.4621 162.552 32.761 172.166 47.4561C174.313 50.4825 176.828 53.2294 179.654 55.6333C178.36 57.7027 177.464 59.9957 177.012 62.3943C172.227 61.0732 166.18 65.961 163.738 70.191C159.792 78.2772 158.937 87.5263 161.331 96.1994C163.366 102.509 167.775 107.098 175.49 106.96C189.966 106.683 193.881 69.7339 180.547 64.3837C179.728 64.0746 180.032 64.3837 180.378 63.5356C180.997 61.6512 181.711 59.7993 182.518 57.9873C185.016 60.0571 188.03 61.4095 191.237 61.9002C193.143 61.9716 195.017 61.3869 196.545 60.2436C196.484 66.8858 196.135 67.1288 193.11 72.0959C191.065 75.4645 188.822 79.3589 189.554 83.2533C189.696 83.9479 190.044 84.5833 190.554 85.0761C191.064 85.5688 191.711 85.8959 192.41 86.0142C193.566 86.0681 194.725 86.0451 195.879 85.9455C197.327 93.0025 188.603 106.728 206.088 110.073C208.543 110.4 211.032 110.394 213.485 110.054C216.183 109.673 218.809 108.899 221.282 107.756C221.79 110.537 222.642 113.245 223.816 115.817C226.276 119.36 227.673 117.513 226.923 114.324C226.923 114.297 224.749 106.744 224.661 106.49C229.93 104.192 235.071 101.612 240.062 98.7595C240.288 98.6544 240.462 98.464 240.547 98.2301C240.633 97.9962 240.621 97.7381 240.516 97.5125C240.411 97.2868 240.221 97.1122 239.987 97.027C239.753 96.9417 239.495 96.9529 239.269 97.058C232.088 99.8824 225.66 102.593 221.568 103.84C218.896 104.987 216.107 105.838 213.25 106.379C211.104 106.644 208.934 106.656 206.785 106.414C202.082 105.499 199.884 103.885 199.081 101.597C197.665 97.4913 200.764 90.12 199.409 84.7011C198.806 82.3233 195.852 82.6905 193.152 82.5109C192.653 79.7843 194.777 76.3549 196.172 73.9083C200.473 66.4181 199.406 65.8131 199.031 58.056C204.135 52.6319 208.872 42.1588 214.635 39.773C216.468 43.0465 218.231 46.2328 220.13 49.1549C217.02 49.4841 214.159 51.0083 212.151 53.406C211.623 54.2647 210.632 56.3493 211.686 57.023C212.74 57.6967 214.614 55.7706 215.586 55.0282C216.953 53.9421 218.55 53.1814 220.254 52.8036C220.939 52.6987 221.596 52.457 222.186 52.0929C224.358 55.4071 227.272 58.1706 230.696 60.1648C234.121 62.1591 237.962 63.3293 241.917 63.5832C245.194 63.7505 248.475 63.3135 251.594 62.2939C253.399 63.8606 255.608 62.8223 257.478 62.8223C258.997 62.8986 260.518 62.8933 262.036 62.8064C266.366 62.3441 266.171 59.8447 267.505 57.99C269.09 55.7812 271.373 54.0718 273.114 52.0031C274.488 50.3491 275.296 49.2791 274.808 47.2025ZM182.222 96.6089C180.835 99.7793 178.872 103.148 175.421 103.214C164.816 103.42 162.552 91.2429 164.061 80.8992C164.38 75.5983 166.734 70.6255 170.631 67.0179C170.757 67.226 170.959 67.3768 171.195 67.438C171.43 67.4992 171.68 67.466 171.892 67.3455C185.128 60.8117 188.077 83.3167 182.222 96.6089ZM191.496 58.3361C188.196 58.0719 184.098 54.7852 181.659 52.5236C177.939 49.0889 173.828 45.0228 173.065 40.0214C171.369 28.5865 182.256 19.6617 193.506 21.1386C203.358 22.4226 208.566 29.1361 213.483 37.7254C204.389 41.345 198.061 58.8249 191.496 58.3361ZM246.273 61.105C243.044 61.2986 239.811 60.8016 236.789 59.6472C233.767 58.4927 231.026 56.7073 228.749 54.41C219.417 45.1311 216.035 29.284 204.92 21.5745C218.989 23.4055 227.998 26.243 241.053 45.6172C243.385 48.698 245.535 51.9127 247.491 55.2449C248.45 56.9384 249.09 59.0362 250.133 60.5713C248.859 60.8261 247.57 61.0132 246.273 61.105Z" fill="#191919"/>
<path d="M179.082 70.5478C178.127 70.4628 177.166 70.6107 176.28 70.9788C175.395 71.3469 174.612 71.9243 173.999 72.6614C168.577 78.2097 167.816 96.1572 177.124 96.2708C177.244 96.2963 177.367 96.298 177.488 96.2758C177.608 96.2536 177.722 96.208 177.825 96.1415C177.927 96.075 178.016 95.989 178.085 95.8883C178.155 95.7876 178.203 95.6743 178.229 95.5548C178.254 95.4353 178.256 95.3119 178.234 95.1917C178.212 95.0715 178.166 94.9569 178.1 94.8543C178.033 94.7518 177.947 94.6633 177.846 94.594C177.746 94.5247 177.632 94.4759 177.513 94.4504C177.078 94.2222 176.676 93.934 176.321 93.5944C175.834 93.1217 175.439 92.5627 175.156 91.9457C173.814 88.9618 173.399 85.6437 173.965 82.4211C174.111 79.7057 175.043 77.0913 176.649 74.8966C177.177 74.1938 178.039 72.8913 178.926 72.8173C179.075 72.8275 179.224 72.8084 179.365 72.761C179.506 72.7137 179.637 72.639 179.749 72.5412C179.861 72.4434 179.953 72.3245 180.019 72.1912C180.085 72.058 180.125 71.9129 180.135 71.7644C180.145 71.6159 180.126 71.4669 180.079 71.3258C180.031 71.1846 179.957 71.0542 179.859 70.942C179.761 70.8298 179.642 70.7379 179.509 70.6716C179.376 70.6053 179.231 70.558 179.082 70.5478Z" fill="#191919"/>
<path d="M175.071 57.1737C171.52 51.2714 105.963 15.6934 72.3667 11.7304C35.4705 7.4476 9.99843 23.0939 0.0378892 61.5146C-0.0321824 61.7539 -0.00432414 62.0112 0.115335 62.23C0.234993 62.4487 0.436651 62.611 0.675945 62.6811C0.91524 62.7511 1.17257 62.7233 1.39133 62.6036C1.61008 62.484 1.77234 62.2823 1.84241 62.043C13.4754 25.9473 37.0689 11.3182 71.9282 15.4425C103.02 19.07 170.826 54.8091 173.148 58.3653C173.226 58.4916 173.328 58.6012 173.449 58.6879C173.57 58.7747 173.706 58.8368 173.851 58.8708C173.995 58.9048 174.145 58.9099 174.292 58.886C174.439 58.862 174.579 58.8094 174.705 58.7312C174.832 58.653 174.941 58.5506 175.028 58.43C175.115 58.3094 175.177 58.1729 175.211 58.0282C175.245 57.8836 175.25 57.7337 175.226 57.5871C175.202 57.4405 175.15 57.3 175.071 57.1737Z" fill="#191919"/>
<path d="M25.9394 38.1111C23.1758 40.333 20.3435 42.9751 16.3435 51.1654C13.7128 55.8639 12.0205 61.0289 11.3605 66.3731C11.2939 66.6039 11.3184 66.8515 11.4289 67.0649C11.5395 67.2782 11.7277 67.4409 11.9548 67.5196C12.1818 67.5982 12.4304 67.5867 12.6492 67.4874C12.868 67.3881 13.0403 67.2087 13.1307 66.986C14.1066 65.3479 14.9964 63.66 15.7965 61.9292C17.3634 57.8866 19.1404 53.9287 21.1203 50.0716C22.3964 47.6938 27.4295 39.9129 27.6092 39.6487C27.7101 39.5391 27.7885 39.4106 27.8398 39.2707C27.8912 39.1308 27.9144 38.9821 27.9083 38.8332C27.9022 38.6843 27.8668 38.538 27.8041 38.4028C27.7414 38.2676 27.6528 38.146 27.5431 38.045C27.4335 37.9441 27.305 37.8657 27.1651 37.8143C27.0252 37.763 26.8765 37.7398 26.7276 37.7459C26.5787 37.752 26.4324 37.7874 26.2972 37.8501C26.1619 37.9127 26.0404 38.0014 25.9394 38.1111Z" fill="#191919"/>
<path d="M38.0475 42.1668C36.3867 43.0013 34.956 44.2306 33.881 45.7468C31.0825 49.7066 28.562 53.8558 26.3379 58.1644C25.049 60.5155 24.3032 63.1255 24.1556 65.8026C24.1176 65.9199 24.103 66.0435 24.1128 66.1664C24.1226 66.2893 24.1565 66.409 24.2125 66.5188C24.2686 66.6286 24.3457 66.7263 24.4395 66.8062C24.5334 66.8862 24.642 66.9469 24.7593 66.9849C24.8765 67.0229 25.0001 67.0374 25.123 67.0277C25.2459 67.0179 25.3657 66.984 25.4755 66.9279C25.5852 66.8719 25.6829 66.7947 25.7629 66.7009C25.8429 66.6071 25.9036 66.4985 25.9416 66.3812C26.1001 66.117 27.5691 63.8316 28.2983 62.471C30.4005 58.1909 32.7634 54.0439 35.3737 50.0533C36.5167 47.9752 37.803 45.9792 39.2232 44.0796C39.4396 43.9077 39.5856 43.6624 39.6335 43.3902C39.6814 43.1179 39.6279 42.8376 39.4832 42.6021C39.3384 42.3666 39.1124 42.1923 38.8479 42.1121C38.5834 42.0319 38.2986 42.0513 38.0475 42.1668Z" fill="#191919"/>
<path d="M144.436 120.237C136.232 111.632 132.726 108.221 129.281 104.998C109.233 86.3971 88.2335 68.8479 66.3685 52.4209C64.3231 50.7489 62.0788 49.3361 59.6868 48.2147C64.3236 45.3085 63.4438 45.6625 65.6657 44.2015C65.8044 44.1419 65.9298 44.0551 66.0343 43.9462C66.1389 43.8373 66.2205 43.7085 66.2744 43.5674C66.3282 43.4264 66.3532 43.276 66.3479 43.1251C66.3426 42.9743 66.3071 42.826 66.2434 42.6891C66.1797 42.5522 66.0892 42.4295 65.9773 42.3283C65.8653 42.227 65.7342 42.1492 65.5916 42.0995C65.4491 42.0499 65.298 42.0293 65.1473 42.0391C64.9967 42.0489 64.8495 42.0888 64.7146 42.1565C61.9782 42.9022 59.3715 44.0603 56.984 45.5912C51.6999 48.8039 43.6178 54.8965 40.4949 60.3655C40.0695 61.1423 39.7181 61.8847 39.372 62.6536C39.2379 62.8583 39.1893 63.1074 39.2367 63.3475C39.2842 63.5876 39.4238 63.7996 39.6258 63.9379C39.8277 64.0762 40.0758 64.1298 40.3168 64.0873C40.5578 64.0448 40.7726 63.9095 40.915 63.7104C41.4276 63.182 44.0855 60.8279 44.421 60.5003C48.3519 56.4713 52.6905 52.8614 57.3671 49.7286C60.0824 50.9629 62.5499 52.6819 64.6485 54.8014C68.387 57.7076 98.731 82.9207 102.789 86.3924C115.231 96.987 117.69 99.8431 143.157 121.606C143.342 121.749 143.575 121.818 143.808 121.799C144.042 121.781 144.26 121.675 144.42 121.504C144.58 121.333 144.67 121.108 144.673 120.874C144.676 120.639 144.592 120.412 144.436 120.237Z" fill="#191919"/>
<path d="M411.655 85.8924C404.088 89.4645 397.108 93.771 389.108 96.384C386.667 97.1766 384.233 97.9692 381.808 98.775C380.463 99.2321 376.812 101.097 377.726 100.009C399.066 74.6452 417.637 47.0278 438.665 21.4844C437.473 34.1346 436.863 46.9934 435.957 59.6938C436.955 59.0138 437.905 58.267 438.802 57.4586C440.979 55.6303 441.709 54.88 443.822 53.0675C448.448 49.0807 453.273 45.292 457.931 41.3315C472.282 29.1226 487.123 17.4896 502 5.95972C497.979 12.2689 495.184 19.2572 490.877 25.4369C469.796 55.6039 446.226 84.1486 428.083 116.292C421.034 107.613 417.367 94.849 412.654 84.7193L411.655 85.8924Z" fill="#FFEA7A"/>
<path d="M127.446 180.56C134.719 173.786 142.746 167.712 149.666 160.591C129.232 148.245 105.58 139.838 83.2469 131.917C68.7156 126.765 54.0126 120.448 38.834 117.534C58.4565 136.958 80.05 154.205 101.068 172.129C89.8838 182 77.9575 191.036 66.705 200.83C79.5031 198.732 93.6883 200.087 106.582 200.566C129.356 201.395 152.107 203.16 174.879 203.895C168.255 200.592 161.933 196.687 155.187 193.638C145.877 189.395 136.083 186.143 127.446 180.56Z" fill="#FFEA7A"/>
<path d="M97.3344 257.669C99.8367 259.142 102.495 260.332 105.261 261.217C105.9 261.457 114.981 264.863 117.72 265.463C120.915 266.139 121.509 266.234 121.837 265.489C122.233 264.541 121.015 263.83 118.574 262.416C116.024 260.947 99.8285 255.283 99.5642 255.201C96.8905 254.422 95.4664 253.832 94.9644 254.918C94.4915 255.951 95.4215 256.453 97.3344 257.669Z" fill="#191919"/>
<path d="M111.193 237.824C113.868 240.291 116.665 242.624 119.574 244.812C121.491 246.55 123.636 248.019 125.949 249.179C127.391 249.874 128.121 250.313 128.652 249.655C129.135 249.039 128.808 248.598 127.442 246.902C126.36 245.542 125.098 244.337 123.69 243.319C122.945 242.703 115.008 236.289 113.317 235.242C110.606 233.528 109.772 233.232 109.159 233.966C108.377 234.899 109.402 235.871 111.193 237.824Z" fill="#191919"/>
<path d="M440.313 221.456C439.967 222.879 439.81 224.341 439.848 225.805C439.5 233.401 439.396 235.692 439.486 236.78C439.751 239.56 439.97 240.215 440.712 240.302C441.822 240.431 442.76 237.079 442.895 236.445C443.489 231.83 443.671 227.173 443.439 222.526C443.119 220.125 442.937 218.954 441.875 218.909C440.813 218.864 440.678 219.945 440.313 221.456Z" fill="#191919"/>
<path d="M417.967 249.179C418.374 249.158 423.93 248.741 424.284 248.688C425.122 248.572 427.479 247.724 427.502 246.936C427.534 246.059 425.225 245.259 424.691 245.15C422.079 245.012 419.459 245.189 416.889 245.679C412.852 246.485 412.559 249.433 417.967 249.179Z" fill="#191919"/>
<path d="M453.155 248.527C453.824 248.527 458.006 248.39 458.273 248.374C459.829 248.297 462.373 247.581 462.405 246.588C462.426 246.004 461.206 244.662 457.158 244.662C455.624 244.621 454.09 244.728 452.577 244.981C451.958 245.063 449.554 245.843 449.67 247.026C449.787 248.21 452.059 248.527 453.155 248.527Z" fill="#191919"/>
<path d="M436.922 259.589C436.732 262.267 436.758 264.956 437.001 267.629C437.094 268.039 437.892 270.509 438.851 270.461C439.709 270.416 440.415 267.899 440.473 267.537C440.633 264.887 440.638 262.229 440.489 259.579C440.359 258.459 439.86 256.266 438.676 256.266C437.493 256.266 436.983 258.831 436.922 259.589Z" fill="#191919"/>
<path d="M427.976 300.39C413.172 299.135 398.308 298.726 383.457 299.167C376.871 299.249 370.296 299.745 363.772 300.652C358.469 299.205 352.971 298.601 347.481 298.863C347.274 298.869 347.075 298.943 346.914 299.073C346.754 299.203 346.64 299.382 346.591 299.583C346.542 299.784 346.561 299.995 346.644 300.184C346.726 300.374 346.869 300.531 347.05 300.631C344.377 303.881 340.908 306.385 336.981 307.897C331.029 310.051 324.859 311.55 318.582 312.367C314.061 313.159 309.911 315.741 305.554 317.07C302.454 317.893 299.226 318.119 296.042 317.736C293.919 317.656 291.808 317.378 289.736 316.906C288.92 316.649 288.139 316.294 287.408 315.849C279.68 316.438 270.145 317.128 262.628 315.511C259.21 314.739 255.191 312.039 255.165 308.813C255.147 308.159 255.299 307.512 255.606 306.934C255.913 306.356 256.364 305.867 256.916 305.516C255.098 304.459 254.821 303.389 255.46 301.836C256.313 300.074 257.477 298.481 258.895 297.133C259.132 296.88 259.293 296.566 259.361 296.225C259.428 295.885 259.398 295.533 259.274 295.209C259.151 294.885 258.939 294.603 258.663 294.393C258.386 294.184 258.057 294.057 257.712 294.026C243.765 293.195 229.77 294.285 216.12 297.265C195.074 296.522 172.664 295.997 153.768 298.821C153.478 298.858 153.214 299.006 153.031 299.234C152.848 299.461 152.76 299.751 152.786 300.042C152.812 300.333 152.949 300.602 153.169 300.794C153.389 300.986 153.674 301.086 153.966 301.072C154.249 301.056 176.524 300.258 202.725 300.655C196.041 302.752 191.364 306.486 194.601 312.731C198.878 320.956 210.572 322.726 219.7 324.536C231.316 326.735 243.088 328.001 254.906 328.322C277.908 328.924 300.921 327.649 323.715 324.51C339.024 322.353 354.052 318.536 368.535 313.128C370.303 312.335 373.027 310.943 373.444 309.054C373.973 306.7 372.086 304.874 370.078 303.537C394.023 301.688 406.169 304.031 427.966 302.264C428.205 302.252 428.432 302.149 428.598 301.976C428.764 301.803 428.858 301.572 428.859 301.332C428.861 301.092 428.77 300.86 428.605 300.685C428.441 300.51 428.216 300.404 427.976 300.39Z" fill="#191919"/>
<path d="M439.565 167.064C440.606 166.343 446.638 160.512 447.169 159.849C447.42 159.535 449.018 157.268 448.419 156.536C447.819 155.804 445.28 157.04 444.778 157.373C441.999 159.541 439.46 162 437.203 164.708C436.088 166.433 435.618 167.326 436.286 167.997C437.045 168.753 438.08 168.063 439.565 167.064Z" fill="#191919"/>
<path d="M450.611 176.436C451.515 176.053 465.406 169.038 467.042 167.997C470.197 165.971 470.477 165.521 470.212 164.864C469.877 164.042 469.1 164.285 467.306 164.639C466.478 164.805 465.662 165.024 464.862 165.294C459.219 167.729 453.747 170.54 448.481 173.709C445.636 175.688 444.92 176.267 445.385 177.194C446.006 178.423 448.318 177.419 450.611 176.436Z" fill="#191919"/>
<path d="M69.223 226.904C69.0254 226.753 68.7761 226.685 68.5289 226.716C68.2818 226.746 68.0566 226.873 67.902 227.068C63.8226 231.295 57.5689 214.983 46.0892 222.772C45.7765 222.986 45.5353 223.288 45.3968 223.641C45.2583 223.993 45.2289 224.379 45.3124 224.748C48.2451 237.409 49.7273 247.602 50.6996 252.464C45.2516 248.236 34.3981 248.828 30.6886 257.143C29.8884 259.052 29.5631 261.127 29.7405 263.19C29.9179 265.253 30.5928 267.242 31.7073 268.986C32.8218 270.731 34.3427 272.18 36.1398 273.208C37.9368 274.236 39.9562 274.813 42.0252 274.89C44.0941 274.966 46.1508 274.54 48.0189 273.648C49.8871 272.756 51.5111 271.424 52.7517 269.766C53.9923 268.109 54.8125 266.175 55.1421 264.131C55.4717 262.087 55.3008 259.994 54.6441 258.03C53.6472 246.983 51.8575 236.022 49.2887 225.232C55.6296 221.797 59.384 229.758 65.0988 230.252C65.9323 230.38 66.7851 230.257 67.5487 229.899C68.3123 229.541 68.9521 228.964 69.3868 228.241C69.5393 228.041 69.6076 227.789 69.577 227.54C69.5464 227.29 69.4193 227.062 69.223 226.904Z" fill="black"/>
<path d="M390.302 43.8735C390.18 28.5258 390.225 22.4015 388.899 5.86755C388.862 5.39432 388.646 4.95296 388.295 4.63339C387.944 4.31382 387.485 4.14008 387.01 4.14757C373.958 4.27439 359.966 6.14232 346.462 6.31406C346.211 6.31734 345.963 6.37113 345.733 6.47222C345.502 6.57331 345.295 6.71963 345.122 6.9025C344.95 7.08538 344.816 7.30107 344.728 7.53675C344.641 7.77244 344.602 8.0233 344.613 8.27446C344.782 11.6669 345.263 33.5404 345.477 44.962C340.003 36.3595 327.107 35.5035 319.981 42.0188C309.677 51.4694 316.258 70.0245 331.485 70.0562C335.861 70.0471 340.055 68.3003 343.144 65.1998C346.233 62.0993 347.965 57.8989 347.958 53.5222C347.958 52.4496 347.842 51.9212 347.857 51.3241C348.542 40.3754 348.956 32.7134 348.737 20.3936C361.195 21.5845 373.75 21.2918 386.138 19.5217C386.902 30.9486 386.756 29.8389 387.832 40.7849C382.378 35.9737 371.004 36.4784 367.224 44.9779C366.386 46.9711 366.066 49.1441 366.295 51.2942C366.524 53.4442 367.295 55.5012 368.534 57.273C369.773 59.0449 371.441 60.4739 373.382 61.4267C375.323 62.3794 377.474 62.8249 379.633 62.7215C381.793 62.6181 383.892 61.9692 385.733 60.8354C387.574 59.7015 389.097 58.1197 390.162 56.2376C391.226 54.3554 391.796 52.2343 391.819 50.0722C391.841 47.9101 391.327 45.7775 390.302 43.8735ZM371.081 17.1253C352.008 17.7753 359.406 17.0963 348.687 17.8836C348.624 15.2627 348.535 12.6435 348.423 10.0261C361.477 9.70381 373.068 8.22954 385.314 7.92835C385.475 9.88611 385.715 13.3208 385.961 16.9483C381.003 16.6822 376.032 16.7413 371.081 17.1253Z" fill="black"/>
</svg>
