<svg width="523" height="427" viewBox="0 0 523 427" fill="none" xmlns="http://www.w3.org/2000/svg">
<path d="M104.28 240.294C110.456 237.59 117.264 230.201 111.892 220.947C106.52 211.694 93.248 215.183 90.1681 220.519C93.1468 228.186 97.9984 234.984 104.28 240.294Z" fill="#FF8B20"/>
<path d="M86.5776 221.477C83.462 221.263 80.3354 221.263 77.2199 221.477C78.6427 223.384 79.5282 225.638 79.7841 228.004C80.0399 230.369 79.6569 232.76 78.6747 234.928C83.4455 238.589 87.7332 241.343 86.5419 246.525C84.5985 254.925 65.6223 255.079 58.9519 252.015L25.9213 273.124C24.5873 273.978 23.5634 272.575 24.6888 271.532C28.7734 267.733 49.5777 254.428 56.1465 250.442C48.0378 245.021 42.8552 233.816 41.2302 227.64C27.4393 230.289 13.8913 234.075 0.724976 238.96C1.06756 241.47 1.54681 243.96 2.16061 246.418C7.32572 244.866 12.5813 243.632 17.8977 242.723C19.6106 242.586 20.3435 244.134 18.1887 244.62C12.6246 245.88 8.23529 247.288 2.7947 248.965C4.53337 254.919 6.87509 260.679 9.78347 266.157C15.3943 262.734 36.4512 251.376 41.2576 250.113C42.3007 249.838 42.976 251.211 42.0455 251.738C33.9532 256.221 19.1769 264.395 11.2548 268.757C16.7565 278.395 23.4777 287.283 31.2521 295.202C42.3454 283.959 54.1642 273.457 66.6324 263.761C67.9116 262.836 69.1551 263.761 67.7963 265.062C56.7724 275.537 44.3705 287.931 33.9395 297.854C44.785 308.304 55.076 314.406 59.2401 313.435C68.252 311.324 94.055 256.767 101.373 243.303C96.3086 240.401 87.3462 229.465 86.5776 221.477Z" fill="#FFB39C"/>
<path d="M215.911 221.82C207.168 217.87 189.672 218.158 156.948 220.417C139.842 248.452 116.358 257.535 96.6518 263.044C100.379 285.897 105.735 303.069 104.947 313.539C104.159 324.008 85.6361 370.808 72.9954 399.065C75.5949 399.699 88.2356 400.193 94.7193 400.52C98.9274 395.661 138.639 338.614 143.487 328.557C151.749 311.453 155.134 273.382 155.186 263.368C155.186 261.076 156.402 260.991 156.896 262.94C157.319 265.31 157.457 267.721 157.308 270.124C166.545 267.217 195.076 258.628 198.719 259.212C202.773 259.86 216.715 288.205 228.552 307.98C235.087 305.671 241.387 302.743 247.366 299.237C241.311 275.685 224.668 225.773 215.911 221.82Z" fill="black"/>
<path d="M398.152 190.859C393.763 188.037 389.032 185.789 384.072 184.17C373.809 207.947 347.366 208.117 349.332 178.183C343.914 177.979 338.489 178.162 333.098 178.732C335.527 203.791 326.257 219.286 316.249 225.155C315.755 228.216 309.699 254.831 307.303 270.5C308.859 271.117 316.831 271.971 318.61 273.923C319.587 271.323 323.743 246.552 325.999 246.212C328.256 245.872 374.426 245.1 376.477 247.376C378.527 249.652 384.638 274.11 388.349 288.993C388.025 283.141 395.33 275.888 399.947 273.152C400.254 268.021 401.16 259.86 401.16 243.731C385.596 229.824 393.617 202.029 398.152 190.859Z" fill="#FFAF9B"/>
<path d="M340.71 118.177C345.028 135.778 364.66 136.994 376.359 138.49C376.173 143.3 377.269 148.073 379.535 152.319C380.435 154.024 381.981 151.565 384.665 152.457C387.644 153.448 385.195 160.631 381.981 160.189C379.466 159.843 379.258 160.546 379.055 161.899C378.032 169.076 377.609 176.325 377.789 183.571C377.759 183.842 377.834 184.114 377.999 184.331C378.164 184.548 378.406 184.693 378.675 184.737C378.944 184.781 379.219 184.719 379.444 184.566C379.669 184.412 379.826 184.178 379.884 183.912C379.928 183.637 380.106 181.441 380.287 180.236C393.85 183.349 412.308 194.809 418.893 200.044C414.226 186.868 402.25 123.071 391.992 130.357C391.24 107.351 365.206 101.619 360.809 111.353C355.028 100.661 336.389 100.557 340.71 118.177Z" fill="#191919"/>
<path d="M352.085 136.958C350.967 142.398 350.162 147.897 349.675 153.428C343.335 161.263 336.404 168.6 328.942 175.375C338.035 174.266 347.25 174.718 356.192 176.709C355.094 180.78 353.795 182.103 354.857 182.679C357.111 183.903 359.013 176.728 359.373 175.375C361.888 176.299 364.615 176.48 367.23 175.896C369.845 175.312 372.237 173.987 374.119 172.081C375.025 171.038 373.965 170.252 372.818 170.815C369.374 172.953 365.235 173.67 361.273 172.816C346.724 168.669 352.87 148.111 353.847 137.131C353.857 136.905 353.78 136.683 353.631 136.511C353.483 136.34 353.274 136.232 353.048 136.209C352.822 136.187 352.596 136.253 352.417 136.392C352.238 136.531 352.119 136.734 352.085 136.958Z" fill="#191919"/>
<path d="M193.451 76.5602C192.902 78.2703 195.733 79.2311 196.394 77.5868C206.507 52.3822 200.341 21.4598 182.719 1.12487C181.895 0.183338 180.234 1.59152 181.008 2.57972C189.129 12.8736 194.526 25.0472 196.701 37.977C198.875 50.9068 197.758 64.1762 193.451 76.5602Z" fill="#191919"/>
<path d="M25.0319 47.6855C39.7424 46.6342 52.2816 46.5573 66.6159 50.1149C53.4071 48.6836 40.0562 50.8222 27.9554 56.3076C26.9644 56.8044 27.3295 58.3306 28.3149 58.0177C47.4778 51.9293 59.6876 50.425 78.7598 53.8453C81.9056 54.3943 81.5488 52.5414 79.8578 51.8936C63.9066 45.7997 43.783 42.6237 26.8299 45.4978C29.2292 42.001 32.1086 38.8592 35.3833 36.1648C46.8108 32.0939 64.5764 31.1963 77.7524 33.5982C78.7955 33.7876 78.8998 32.4837 77.9583 32.1433C66.1356 27.8941 46.152 29.865 34.5873 34.2982C31.5129 35.484 20.7031 47.9957 25.0319 47.6855Z" fill="#191919"/>
<path d="M154.398 107.818C155.212 106.151 155.927 104.438 156.537 102.687C157.459 99.6676 148.351 101.139 136.866 92.8682C132.609 89.8021 131.102 86.4285 128.777 89.9091C126.959 92.6106 124.731 95.0113 122.172 97.0242C119.641 92.7996 113.646 94.658 111.467 99.9833C111.118 100.637 110.906 101.354 110.843 102.092C110.781 102.829 110.869 103.572 111.103 104.275C111.337 104.977 111.711 105.625 112.203 106.178C112.695 106.732 113.294 107.179 113.965 107.494C109.477 114.096 106.446 121.577 105.071 129.44C104.87 130.617 106.795 131.257 107.105 130.071C109.111 122.389 112.302 115.066 116.564 108.367C117.662 106.662 117.577 105.55 116.224 105.347C112.806 104.798 113.281 101.718 114.923 99.3931C116.325 97.4085 119.427 96.4724 120.056 98.8441C121.154 102.989 129.172 93.5078 130.849 90.9577C135.979 96.7387 146.586 101.663 153.871 103.036C150.559 111.447 145.28 118.943 138.477 124.897C134.98 127.741 129.891 129.788 125.598 127.173C122.339 124.802 120.106 121.279 119.353 117.321C118.985 116.085 117.621 116.223 117.643 117.491C117.737 120.239 118.63 122.9 120.213 125.148C121.796 127.396 124 129.134 126.556 130.148C126.128 131.106 125.732 138.002 128.162 136.991C129.26 136.53 128.403 134.768 128.812 130.543C141.607 131.894 151.266 112.281 152.419 111.726C189.537 93.9141 180.468 41.2677 156.899 15.44C156.059 14.5205 154.33 15.6294 155.189 16.6039C172.345 36.0989 187.994 86.9555 154.398 107.818Z" fill="#191919"/>
<path d="M32.5917 88.3801C57.1622 81.8388 90.374 81.0427 108.027 107.966C108.711 109.009 109.998 108.342 109.43 107.197C96.3196 80.7381 58.5759 78.5613 31.5157 86.1896C28.9359 78.9519 27.6951 71.3051 27.8538 63.623C27.8127 60.2027 25.7265 59.5796 25.4602 63.2634C24.9672 71.551 26.4735 79.8357 29.8522 87.4194C30.6949 89.0636 30.92 88.8221 32.5917 88.3801Z" fill="#191919"/>
<path d="M48.8256 18.5748C66.4392 21.8872 82.8154 29.942 96.1906 41.8716C96.9235 42.4892 97.6784 41.4955 97.1486 40.7736C89.8304 30.8284 68.8751 20.4606 52.2816 16.9278C57.3104 13.8836 73.0118 8.62688 77.9391 8.99196C104.533 10.9656 130.064 33.6201 138.269 49.0525C138.851 50.1505 140.758 51.1057 140.665 48.2153C140.223 34.5808 125.595 16.9223 113.978 11.0782C126.754 9.75489 139.659 10.4711 152.211 13.2C153.385 13.4444 153.509 11.6958 152.397 11.2785C143.465 7.98729 120.132 6.97438 110.799 9.23352C110.031 9.42018 109.279 10.8421 110.152 11.3389C122.99 18.6324 132.759 28.7614 137.124 42.9668C126.945 27.6177 111.874 16.1632 94.3597 10.466C80.4453 5.85168 75.7102 5.93678 62.5424 10.1394C57.4674 11.5663 52.6194 13.7029 48.1421 16.4858C47.3049 17.1034 47.3543 18.2481 48.8256 18.5748Z" fill="#191919"/>
<path d="M215.346 47.9958C215.358 48.2421 215.458 48.4759 215.627 48.6553C215.796 48.8346 216.024 48.9479 216.269 48.9746C216.514 49.0014 216.761 48.9399 216.965 48.8013C217.169 48.6627 217.317 48.4559 217.382 48.2181C220.127 39.3572 216.372 23.6037 210.539 16.4859C210.367 16.2114 210.092 16.0168 209.776 15.9447C209.46 15.8726 209.128 15.9291 208.854 16.1016C208.579 16.2741 208.385 16.5486 208.312 16.8647C208.24 17.1808 208.297 17.5126 208.469 17.787C213.656 26.9715 216.046 37.4713 215.346 47.9958Z" fill="#191919"/>
<path d="M142.202 112.141C141.571 112.38 141.195 113.39 142.493 113.475C143.079 113.558 143.614 113.851 144 114.298C144.514 115.018 145.137 114.194 145.008 113.615C144.939 113.322 144.809 113.047 144.625 112.81C144.441 112.572 144.208 112.376 143.942 112.236C143.676 112.096 143.383 112.016 143.083 111.999C142.782 111.983 142.482 112.031 142.202 112.141Z" fill="#191919"/>
<path d="M133.992 101.073C132.18 100.422 131.502 101.71 133.188 102.561C134.354 103.172 135.291 104.143 135.859 105.331C136.364 106.352 138.013 105.075 137.432 104.134C136.603 102.804 135.409 101.742 133.992 101.073Z" fill="#191919"/>
<path d="M134.763 114.073C132.595 113.59 134.352 117.389 136.611 117.595C138.442 117.765 139.77 113.445 140.374 111.628C141.143 109.305 139.707 109.316 139.397 109.917C138.373 111.628 138.131 113.988 136.652 115.391C136.097 115.852 135.504 114.238 134.763 114.073Z" fill="#191919"/>
<path d="M126.465 115.869C126.937 116.959 127.674 117.914 128.61 118.646C129.545 119.378 130.649 119.864 131.821 120.06C133.24 120.296 133.158 119.025 132.403 118.688C129.71 117.433 127.714 115.558 128.024 113.848C128.335 112.138 125.765 113.371 126.465 115.869Z" fill="#191919"/>
<path d="M131.873 108.273C132.64 108.399 133.35 108.757 133.907 109.3C134.522 109.901 135.156 109.522 135.054 108.548C134.959 108.238 134.803 107.95 134.594 107.702C134.386 107.454 134.129 107.25 133.84 107.104C133.551 106.957 133.236 106.87 132.912 106.848C132.589 106.825 132.264 106.869 131.958 106.975C131.17 107.247 131.049 108.07 131.873 108.273Z" fill="#191919"/>
<path d="M148.738 107.743C149.63 108.567 150.465 107.56 149.644 106.547C148.592 105.272 147.106 104.432 145.472 104.186C143.418 104.049 143.344 105.751 144.923 106C146.338 106.195 147.665 106.801 148.738 107.743Z" fill="#191919"/>
<path d="M360.468 162.19C360.674 166.003 372.116 171.427 370.732 157.211C370.732 156.374 369.126 155.742 368.61 156.662C365.657 161.93 360.35 160 360.468 162.19ZM369.003 159.402C369.346 166.585 364.471 164.996 362.555 162.822C365.068 162.567 367.382 161.339 369.003 159.402Z" fill="#191919"/>
<path d="M358.912 154.971C358.308 157.826 364.923 158.078 363.512 156.22C362.963 155.482 362.058 155.723 360.792 155.177C361.322 153.895 361.871 152.594 362.384 151.312C362.898 150.03 360.065 149.514 358.912 154.971Z" fill="#191919"/>
<path d="M366.164 151.037C367.031 150.922 367.914 151.071 368.695 151.466C369.244 151.79 370.323 151.315 369.551 150.2C369.344 149.907 369.08 149.658 368.774 149.47C368.469 149.282 368.128 149.157 367.773 149.104C367.418 149.052 367.055 149.071 366.708 149.163C366.361 149.254 366.036 149.414 365.752 149.635C364.931 150.365 365.222 151.09 366.164 151.037Z" fill="#191919"/>
<path d="M355.028 140.483C354.166 140.999 353.93 142.193 355.217 142.193C355.94 142.066 356.681 142.096 357.391 142.279C358.101 142.462 358.764 142.795 359.335 143.255C359.614 143.419 359.946 143.464 360.259 143.382C360.414 143.341 360.559 143.27 360.687 143.174C360.814 143.077 360.922 142.956 361.002 142.818C361.083 142.679 361.136 142.527 361.157 142.368C361.179 142.209 361.169 142.048 361.129 141.893C361.088 141.738 361.017 141.593 360.921 141.465C360.824 141.338 360.703 141.231 360.564 141.15C359.841 140.45 358.908 140.006 357.908 139.885C356.909 139.765 355.897 139.975 355.028 140.483Z" fill="#191919"/>
<path d="M366.609 144.282C367.274 144.124 367.966 144.116 368.634 144.259C369.303 144.401 369.931 144.69 370.474 145.106C371.808 146.028 372.544 144.746 371.791 143.733C371.065 142.919 370.115 142.336 369.06 142.056C368.005 141.777 366.891 141.813 365.857 142.16C365.069 142.638 365.486 144.529 366.609 144.282Z" fill="#191919"/>
<path d="M359.082 149.138C358.854 148.855 358.568 148.623 358.243 148.459C357.918 148.295 357.562 148.201 357.199 148.185C356.835 148.169 356.473 148.231 356.135 148.365C355.797 148.5 355.491 148.706 355.239 148.968C354.525 149.745 354.759 150.302 355.599 150.181C356.521 150.047 357.463 150.172 358.319 150.541C359.258 150.958 359.749 149.942 359.082 149.138Z" fill="#191919"/>
<path d="M24.3815 177.088C26.5583 195.27 36.712 212.685 44.2937 228.935C46.3299 233.571 48.8952 237.957 51.9385 242.004C55.4739 246.351 60.1908 249.582 65.5208 251.31C66.9262 251.642 67.6015 250.212 66.2372 249.599C61.5986 247.543 57.4436 244.536 54.0412 240.771C50.7617 236.938 48.1017 232.616 46.1576 227.961C38.9217 213.687 29.3005 192.844 27.4257 176.731C25.5399 160.497 31.3263 160.963 56.1301 147.274C57.2556 146.654 56.4541 145.037 55.2408 145.221C52.2817 145.674 40.8021 152.064 38.3069 153.585C27.5437 160.151 22.6851 162.975 24.3815 177.088Z" fill="#191919"/>
<path d="M82.0786 245.768C71.8151 242.786 69.5587 240.291 63.2616 235.625C62.8005 235.282 60.6072 235.625 62.3036 237.95C65.9902 242.976 75.4055 247.124 81.6833 247.598C82.6413 247.67 83.0202 246.039 82.0786 245.768Z" fill="#191919"/>
<path d="M75.5098 247.648C69.5639 245.85 64.01 242.949 59.1386 239.094C58.5237 238.685 55.776 239.125 58.2328 241.565C62.8785 246.054 68.9093 248.834 75.3396 249.451C76.7615 249.622 77.1458 248.131 75.5098 247.648Z" fill="#191919"/>
<path d="M83.2425 243.011C76.6403 239.093 70.8034 234.011 66.0148 228.01C65.2435 227.159 63.8518 228.257 64.3047 229.311C66.4568 234.293 76.9015 243.036 82.5233 244.705C84.0413 245.161 84.0962 243.525 83.2425 243.011Z" fill="#191919"/>
<path d="M52.3502 177.653C57.1271 174.219 62.2386 171.276 67.6069 168.869C68.6857 168.378 67.9309 166.503 66.734 166.698C62.891 167.315 53.9204 173.011 50.6044 175.608C47.6261 177.949 48.1339 179.031 48.6555 182.589C49.6876 189.687 55.1144 217.272 61.8946 221.776C64.4749 223.492 73.4538 224.104 74.3459 226.412C74.7549 227.472 75.2518 231.441 76.9646 231.268C77.5136 231.268 77.9391 230.379 77.478 227.488C76.9646 224.291 76.4019 223.788 73.064 222.548C70.5688 221.62 64.3596 220.832 63.182 219.964C57.6234 215.847 52.5753 190.291 51.2083 181.974C50.7499 179.108 50.7362 178.825 52.3502 177.653Z" fill="#191919"/>
<path d="M225.73 161.62C221.766 172.21 209.21 187.659 199.334 197.285C194.788 201.716 189.971 205.691 183.462 203.204C176.432 200.407 169.81 196.675 163.778 192.108C162.979 191.518 161.788 192.679 162.513 193.357C168.34 198.69 175.157 202.827 182.578 205.534C190.663 208.576 196.712 203.506 202.181 198.123C210.739 189.679 223.74 173.928 228.027 162.407C229.486 158.353 230.417 154.127 230.797 149.835C230.899 145.199 226.696 140.104 225.837 136.149C225.403 134.15 223.707 135.38 223.784 136.698C224.058 141.109 228.214 144.208 228.113 149.561C228.006 153.686 227.2 157.764 225.73 161.62Z" fill="#191919"/>
<path d="M233.358 154.757C234.939 153.431 237.616 148.754 239.754 148.345C239.986 148.332 240.204 148.231 240.364 148.062C240.524 147.893 240.613 147.67 240.613 147.437C240.613 147.205 240.524 146.982 240.364 146.813C240.204 146.644 239.986 146.543 239.754 146.53C236.147 145.707 233.1 151.013 231.066 153.373C230.185 154.4 231.058 156.695 233.358 154.757Z" fill="#191919"/>
<path d="M208.999 151.446C209.932 152.157 211.61 149.728 213.292 151.191C216.861 154.285 209.963 159.731 208.162 161.455C201.541 167.78 194.586 173.747 187.327 179.33C186.345 180.088 186.685 182.182 188.425 181.04C196.142 175.954 203.316 170.09 209.836 163.541C212.661 160.705 220.017 153.818 214.967 149.514C211.815 146.818 207.607 150.39 208.999 151.446Z" fill="#191919"/>
<path d="M218.187 147.925C219.765 150.362 218.307 155.015 220.067 155.298C222.139 155.63 221.75 151.128 221.555 149.994C219.987 140.81 210.803 145.221 212.771 146.829C213.962 147.79 216.065 144.65 218.187 147.925Z" fill="#191919"/>
<path d="M218.988 142.621C220.545 142.847 222.76 144.109 223.334 148.592C223.474 149.668 222.837 152.816 224.308 152.937C227.632 152.937 226.265 140.736 219.452 140.62C216.699 140.574 216.441 142.251 218.988 142.621Z" fill="#191919"/>
<path d="M291.516 113.08C291.404 107.946 294.228 107.268 292.389 105.943C290.007 104.213 287.997 110.321 289.43 114.134C290.048 115.778 291.563 115.229 291.516 113.08Z" fill="#191919"/>
<path d="M320.372 216.55C321.533 215.948 321.313 214.447 320.15 214.738C306.91 218.051 277.802 216.934 273.265 212.429C265.724 204.966 266.254 182.256 269.845 167.458C273.114 153.98 277.824 140.283 280.655 129.399C281.031 127.947 279.145 127.688 278.637 129.143C274.399 141.243 270.613 153.722 267.396 166.14C264.179 178.559 262.274 204.894 271.297 214.516C275.818 219.336 312.024 220.895 320.372 216.55Z" fill="#191919"/>
<path d="M280.808 124.37C279.367 122.064 277.89 121.139 278.363 117.87C278.796 114.878 275.834 114.911 275.59 117.87C274.901 126.253 282.702 127.4 280.808 124.37Z" fill="#191919"/>
<path d="M282.263 121.446C283.254 122.094 284.654 121.035 283.888 119.956C279.738 114.131 284.665 111.383 282.175 110.31C278.794 108.844 277.836 118.551 282.263 121.446Z" fill="#191919"/>
<path d="M287.616 115.97C285.42 109.448 288.887 109.215 288.198 107.299C286.682 103.088 281.198 113.003 285.821 117.134C286.003 117.294 286.232 117.389 286.473 117.407C286.715 117.424 286.955 117.363 287.158 117.231C287.361 117.099 287.516 116.905 287.599 116.677C287.681 116.45 287.687 116.201 287.616 115.97Z" fill="#191919"/>
<path d="M284.794 125.687C285.091 126.747 286.587 126.404 286.795 125.482C288.692 117.126 294.577 118.331 293.638 116.058C292.7 113.785 283.386 120.667 284.794 125.687Z" fill="#191919"/>
<path d="M297.059 120.247C294.524 124.664 292.688 129.448 291.618 134.428C288.36 150.856 289.005 180.423 290.166 188.927C290.353 190.299 292.302 190.299 292.543 188.172C304.267 184.26 316.589 182.448 328.942 182.819C330.292 182.847 330.227 181.416 328.942 181.109C322.34 179.072 301.934 181.348 292.321 185.501C291.327 162.479 291.901 145.251 294.031 134.631C294.967 129.964 298.05 125.248 300.051 120.947C301.772 117.249 297.108 114.847 298.341 107.861C298.546 106.151 296.63 105.21 295.963 108.512C295.598 111.381 295.843 114.295 296.683 117.063C297.007 118.098 297.696 119.097 297.059 120.247Z" fill="#191919"/>
<path d="M482.959 188.521C469.651 205.216 462.451 232.441 442.248 247.996C438.49 250.892 437.114 251.15 431.677 249.998C421.413 247.821 409.428 240.588 401.435 233.953C400.202 232.929 398.813 234.829 399.931 235.875C408.849 244.322 419.829 250.279 431.773 253.152C433.912 253.743 436.164 253.802 438.331 253.324C440.498 252.845 442.516 251.844 444.207 250.407C461.542 238.543 474.202 204.623 484.559 189.649C484.669 189.437 484.698 189.192 484.641 188.96C484.585 188.728 484.446 188.524 484.251 188.387C484.056 188.249 483.817 188.187 483.58 188.212C483.342 188.236 483.121 188.346 482.959 188.521Z" fill="#191919"/>
<path d="M495.396 180.425C495.695 179.424 494.067 178.707 493.513 179.602C492.908 180.594 492.088 181.438 491.115 182.071C490.141 182.705 489.038 183.112 487.886 183.264C485.747 183.829 486.483 185.301 488.586 185.419C490.104 185.417 491.582 184.932 492.806 184.034C494.031 183.137 494.938 181.873 495.396 180.425Z" fill="#191919"/>
<path d="M487.834 166.399C486.291 167.711 489.426 169.94 491.751 166.245C493.702 163.148 491.924 162.207 490.776 162.822C489.629 163.437 489.061 165.369 487.834 166.399Z" fill="#191919"/>
<path d="M492.146 167.527C491.892 168.679 491.393 169.763 490.682 170.704C489.972 171.646 489.067 172.424 488.028 172.984C486.324 173.865 487.927 175.419 489.31 175.122C490.624 174.544 491.766 173.635 492.624 172.483C493.482 171.332 494.026 169.978 494.205 168.553C494.221 167.066 492.552 166.415 492.146 167.527Z" fill="#191919"/>
<path d="M489.716 177.31C487.188 178.721 488.006 180.329 489.955 179.997C491.283 179.602 492.505 178.912 493.529 177.979C494.554 177.046 495.355 175.894 495.873 174.609C496.472 172.385 494.715 171.523 494.163 172.641C493.188 174.612 491.637 176.24 489.716 177.31Z" fill="#191919"/>
<path d="M400.359 196.709C413.547 204.338 425.598 213.781 436.159 224.763C436.958 225.605 438.174 224.628 437.509 223.426C437.199 222.861 436.851 222.318 436.466 221.801C446.131 215.935 466.387 190.338 473.329 179.039C475.072 176.201 477.639 165.473 478.734 164.979C479.829 164.485 485.561 165.394 488.997 160.565C489.645 159.657 488.517 158.273 487.526 158.855C485.69 160.156 483.632 161.112 481.454 161.677C479.231 162.122 476.749 161.573 475.654 164.09C474.405 166.961 472.728 174.919 470.883 177.774C460.869 193.396 448.74 207.557 434.841 219.852C425.146 209.685 413.857 201.169 401.418 194.639C400.238 194.109 399.28 196.075 400.359 196.709Z" fill="#191919"/>
<path d="M483.625 180.629C484.907 178.766 485.782 176.655 486.191 174.432C486.601 172.208 486.537 169.924 486.003 167.727C485.939 167.466 485.775 167.242 485.546 167.102C485.317 166.963 485.042 166.92 484.781 166.983C484.521 167.047 484.296 167.211 484.156 167.44C484.017 167.669 483.974 167.944 484.037 168.205C484.761 172.226 483.979 176.373 481.841 179.854C481.265 181.57 482.761 181.91 483.625 180.629Z" fill="#191919"/>
<path d="M516.862 420.89C352.121 421.14 182.968 422.002 21.0133 422.603C18.8393 422.603 19.1632 425.897 21.2878 425.919C188.082 427.047 352.42 426.07 517.172 424.654C519.582 424.635 519.255 420.888 516.862 420.89Z" fill="#191919"/>
<path d="M302.401 106.223C315.793 94.367 338.599 72.6623 350.295 59.8157C351.511 58.4816 349.746 56.4997 348.374 57.746C331.993 72.6129 315.926 87.9785 300.172 103.843C299.996 104.16 299.925 104.524 299.97 104.884C300.014 105.244 300.171 105.58 300.419 105.845C300.667 106.109 300.992 106.288 301.348 106.356C301.704 106.424 302.073 106.377 302.401 106.223Z" fill="#191919"/>
<path d="M480.993 158.375C481.607 160.093 484.621 159.163 484.089 157.367C478.434 138.303 468.322 106.05 463.801 91.869C463.287 90.2632 460.507 91.1526 460.979 92.7776C464.63 105.621 473.872 138.561 480.993 158.375Z" fill="#191919"/>
<path d="M155.752 217.184C157.154 214.054 155.974 205.57 156.301 195.528C152.197 198.658 121.132 220.211 115.949 223.599C116.942 227.939 116.335 232.492 114.239 236.42C112.143 240.349 108.699 243.388 104.541 244.98C103.034 248.092 98.7078 255.636 95.8502 260.288C137.379 251.359 154.349 220.313 155.752 217.184Z" fill="#FFAF9B"/>
<path d="M440.641 262.822C440.795 258.493 422.475 257.379 422.03 262.29C421.498 268.139 440.474 267.662 440.641 262.822Z" fill="#191919"/>
<path d="M473.584 292.281C471.364 292.235 469.497 292.281 467.444 292.281C467.564 290.571 467.633 288.776 467.666 286.981H470.046C471.841 286.981 471.756 283.937 469.549 283.961C447.704 284.293 419.944 284.337 399.878 283.739C400.46 280.607 405.61 277.016 408.242 275.715C420.375 269.72 442.901 270.901 455.316 274.005C460.021 275.183 465.577 276.879 467.839 281.447C468.761 283.311 470.886 281.996 469.977 280.113C467.49 274.999 461.819 272.251 455.624 270.67C442.135 267.228 418.465 266.942 406.431 273.064C402.549 275.037 397.839 278.754 396.971 283.327C396.452 286.072 396.971 286.75 399.672 286.646C399.757 288.663 399.826 290.7 399.914 292.718C398.201 292.6 394.38 291.837 393.071 292.718C392.143 293.344 391.959 295.337 394.66 295.798C396.474 296.108 398.322 296.209 400.15 296.413C400.468 304.241 401.245 312.043 402.475 319.781C402.736 321.373 405.201 321.233 405.025 319.575C404.226 312.078 403.622 304.282 403.315 296.586C404.375 296.586 407.045 296.83 406.735 294.584C406.461 292.638 404.539 292.872 403.04 292.786C403.04 292.237 402.681 286.8 402.733 286.714C423.26 286.989 443.908 287.038 464.312 286.885C464.312 288.716 464.122 290.511 464.089 292.394C461.405 292.564 460.669 293.522 460.669 294.428C460.806 296.141 462.59 296.141 463.919 296.141C463.73 305.512 462.656 317.659 463.422 320.994C463.697 322.191 464.891 322.037 465.217 320.994C466.186 317.911 466.637 305.839 467.139 295.951C469.335 295.85 471.586 296.097 473.145 295.951C476.73 295.641 475.61 292.336 473.584 292.281Z" fill="#191919"/>
<path d="M483.318 259.794C490.009 252.042 496.256 243.917 502.031 235.46C503.335 233.539 500.321 232.166 498.934 233.75C492.739 241.699 486.988 249.985 481.71 258.57C481.547 258.784 481.476 259.053 481.512 259.318C481.548 259.584 481.688 259.824 481.902 259.987C482.115 260.149 482.384 260.22 482.65 260.184C482.915 260.148 483.156 260.008 483.318 259.794Z" fill="#191919"/>
<path d="M494.825 267.662C503.221 266.844 511.52 265.229 519.61 262.839C523.631 261.617 522.928 258.721 518.599 259.638C511.213 261.183 502.437 264.016 494.943 265.644C493.365 265.984 492.607 267.662 494.825 267.662Z" fill="#191919"/>
<path d="M521.24 288.924C513.466 285.709 505.461 283.084 497.293 281.071C497.043 280.96 496.759 280.953 496.504 281.051C496.249 281.149 496.044 281.344 495.933 281.594C495.822 281.843 495.814 282.127 495.912 282.382C496.01 282.637 496.206 282.843 496.456 282.954C504.068 286.338 511.903 289.196 519.906 291.507C522.039 292.194 523.285 289.778 521.24 288.924Z" fill="#191919"/>
<path d="M326.513 254.302C323.746 273.72 318.346 301.068 315.36 320.088C315.137 321.51 317.438 321.579 317.704 320.33C321.547 302.405 326.735 271.743 330.089 253.105C342.387 252.882 364.009 253.275 372.851 253.755C373.343 256.217 373.754 258.779 374.083 261.441C365.36 261.288 342.263 260.851 334.742 261.817C333.441 261.985 333.032 264.238 334.536 264.288C347.026 264.782 362.025 264.595 374.698 264.749C378.223 280.895 383.307 303.879 386.672 318.441C387.652 322.671 390.062 321.34 389.529 318.853C384.959 297.494 380.778 274.617 375.761 253.495C375.431 252.108 374.937 250.475 373.125 250.398C358.415 249.717 344.473 249.874 329.867 250.022C328.105 250.061 327.012 250.796 326.513 254.302Z" fill="#191919"/>
<path d="M229.696 310.596C228.483 320.86 233.306 324.469 242.68 323.498C252.054 322.526 261.497 322.4 270.751 322.144C273.605 322.062 277.918 323.069 280.259 320.948C285.818 315.919 273.227 311.34 269.999 310.069C262.82 307.269 255.299 305.463 248.343 302.109C246.51 301.222 245.211 303.443 247.059 304.332C256.913 309.084 270.506 312.169 277.712 317.385C280.915 319.704 271.604 319.097 271.006 319.095C261.409 319.069 251.817 319.537 242.269 320.497C233.122 321.414 232.112 318.395 231.903 310.747C231.984 310.459 231.946 310.15 231.799 309.89C231.653 309.629 231.408 309.437 231.12 309.357C230.831 309.276 230.523 309.314 230.262 309.461C230.001 309.608 229.81 309.852 229.729 310.14C229.688 310.289 229.677 310.444 229.696 310.596Z" fill="#191919"/>
<path d="M81.2056 419.18C93.1793 419.704 106.059 419.636 118.837 419.18C122.257 419.059 122.768 417.659 120.959 414.632C118.252 410.1 97.8843 403.956 92.3586 402.005C90.341 401.285 89.674 403.879 91.6751 404.604C95.9902 406.166 116.273 413.328 118.222 416.097C105.99 416.457 93.7613 416.83 81.3072 416.097C76.0395 415.79 69.0178 416.372 71.7628 409.257C72.6515 407.024 73.722 404.867 74.9635 402.809C76.0615 400.953 72.9898 398.966 69.0947 408.332C64.5215 419.315 73.8847 418.862 81.2056 419.18Z" fill="#191919"/>
<path d="M299.381 272.108C303.809 266.187 306.171 258.975 306.104 251.581C306.106 251.156 305.949 250.745 305.664 250.429C305.379 250.112 304.987 249.914 304.564 249.871C288.033 248.372 271.42 248.307 254.821 248.452C254.399 248.452 253.992 248.607 253.676 248.888C253.361 249.169 253.16 249.556 253.111 249.976C253.196 257.113 255.928 267.242 261.346 272.21C262.354 273.135 263.844 272.704 263.21 271.387C259.642 263.994 256.916 261.296 256.367 251.647C271.761 251.425 287.311 251.938 302.741 253.001C302.718 259.343 300.807 265.536 297.251 270.788C296.136 272.413 298.162 273.723 299.381 272.108Z" fill="#191919"/>
<path d="M296.087 321.151C294.363 322.279 296.326 323.758 298.157 322.655C301.743 320.485 304.843 317.598 307.262 314.175C309.682 310.752 311.368 306.867 312.217 302.762C312.267 302.533 312.266 302.295 312.213 302.066C312.161 301.837 312.057 301.623 311.912 301.439C311.766 301.255 311.581 301.106 311.37 301.002C311.159 300.899 310.928 300.843 310.693 300.84C293.795 301.664 276.213 301.318 260.32 301.491C259.071 301.505 258.61 303.605 260.045 303.783C271.698 305.21 296.241 304.587 308.692 304.038C306.709 311.085 302.228 317.168 296.087 321.151Z" fill="#191919"/>
<path d="M249.128 276.111C251.634 280.129 254.666 283.794 258.143 287.008C259.087 287.878 260.737 286.621 259.853 285.537C257.571 282.76 255.436 279.866 253.457 276.866C271.042 276.955 288.626 277.222 306.211 277.667C304.298 281.003 302.001 284.103 299.367 286.904C297.973 288.384 300.018 289.948 301.454 288.529C305.003 285.126 308.009 281.198 310.367 276.882C310.462 276.696 310.52 276.493 310.536 276.284C310.552 276.075 310.527 275.866 310.462 275.667C310.397 275.468 310.293 275.284 310.157 275.126C310.02 274.967 309.854 274.837 309.667 274.744C308.294 274.041 258.832 273.725 250.394 273.733C250.124 273.749 249.862 273.834 249.634 273.979C249.406 274.125 249.22 274.327 249.092 274.566C248.965 274.805 248.902 275.073 248.908 275.343C248.914 275.614 248.99 275.878 249.128 276.111Z" fill="#191919"/>
<path d="M310.128 290.599C292.422 290.736 274.717 290.78 257.1 290.84C255.596 290.84 255.252 293.141 256.845 293.234C273.611 294.214 290.49 293.731 307.303 293.61C306.455 295.237 305.409 296.754 304.19 298.125C303.092 299.369 306.005 302.814 311.462 292.635C311.542 292.413 311.569 292.176 311.542 291.941C311.514 291.707 311.432 291.482 311.303 291.284C311.174 291.087 311 290.922 310.796 290.803C310.592 290.684 310.363 290.614 310.128 290.599Z" fill="#191919"/>
<path d="M101.115 129.673C81.0162 128.921 61.7738 136.755 54.5215 142.16C59.6519 146.077 69.7096 160.974 70.824 170.845C76.6419 167.645 82.8933 165.306 89.383 163.901C90.3575 163.783 91.9633 165.012 90.0143 165.611C86.0439 166.833 82.2321 168.521 78.6583 170.64C78.4853 179.553 78.2465 202.781 85.1557 218.792C89.7755 213.335 102.485 207.826 110.918 215.773C118.65 209.819 145.949 193.176 154.212 187.532C153.852 174.293 153.185 163.769 143.487 153.544C142.644 152.657 143.58 151.82 144.478 152.432C154.28 159.116 156.452 174.246 156.932 185.501C162.507 180.865 175.645 168.207 182.76 166.396C172.071 154.779 158.266 141.847 131.291 135.468C131.804 147.395 109.054 143.854 101.115 129.673Z" fill="#FFAF9B"/>
<path d="M232.452 142.553C236.147 140.483 251.791 129.783 256.809 126.269C258.107 125.361 256.584 122.671 255.099 123.549C249.183 127.049 233.803 137.524 230.792 139.937C230.445 140.157 230.2 140.506 230.11 140.907C230.02 141.308 230.094 141.728 230.314 142.075C230.534 142.422 230.883 142.667 231.284 142.757C231.685 142.846 232.106 142.773 232.452 142.553Z" fill="#191919"/>
<path d="M209.512 152.901C178.807 174.285 140.316 199.138 113.712 217.115C111.692 218.488 114.088 221.444 116.106 220.074C143.473 201.529 186.158 174.268 211.195 155.638C212.719 154.513 211.126 151.779 209.512 152.901Z" fill="#191919"/>
<path d="M471.959 415.691C475.209 413.737 475.209 329.959 471.959 326.402C468.709 322.844 238.497 323.108 236.026 328.027C234.731 330.61 237.975 413.416 238.933 416.666C239.891 419.916 468.725 417.637 471.959 415.691ZM432.003 353.429C432.826 351.606 440.213 352.35 440.743 353.429C441.273 354.508 442.044 387.997 440.743 389.35C439.442 390.704 433.183 389.674 432.653 389.35C431.828 377.395 431.611 365.406 432.003 353.429ZM396.988 350.605C401.763 352.839 405.629 356.641 407.944 361.377C410.259 366.114 410.884 371.5 409.714 376.641C404.479 396.995 375.585 401.137 364.281 380.692C352.681 359.707 377.366 341.184 396.988 350.605ZM309.065 337.538C325.914 337.368 342.763 347.475 342.763 371.148C342.763 393.712 327.215 404.522 306.255 404.744C285.294 404.966 272.985 391.568 271.906 371.148C270.828 350.728 285.288 337.774 309.065 337.538Z" fill="#FFEA7A"/>
<path d="M406.241 375.529C407.35 370.767 406.602 365.76 404.149 361.53C401.696 357.3 397.722 354.164 393.038 352.762C376.414 347.574 357.731 362.493 366.933 378.812C376.134 395.131 401.704 394.67 406.241 375.529Z" fill="#FBFF4B"/>
<path d="M312.044 385.688C314.933 384.671 317.438 382.785 319.216 380.29C320.993 377.795 321.958 374.812 321.976 371.749C321.995 368.685 321.067 365.691 319.32 363.174C317.572 360.658 315.091 358.742 312.214 357.689C308.75 356.375 304.913 356.437 301.493 357.862C298.073 359.287 295.328 361.968 293.822 365.353C292.589 367.989 292.157 370.929 292.581 373.808C293.006 376.687 294.268 379.378 296.21 381.545C298.152 383.713 300.688 385.261 303.504 385.998C306.319 386.734 309.289 386.627 312.044 385.688ZM296.99 366.309C298.283 363.712 300.538 361.722 303.276 360.763C306.014 359.804 309.018 359.952 311.648 361.176C313.772 362.113 315.562 363.673 316.779 365.65C317.996 367.627 318.585 369.927 318.465 372.246C318.346 374.564 317.526 376.792 316.112 378.634C314.699 380.475 312.759 381.844 310.55 382.559C301.613 385.104 291.632 376.075 296.902 366.309H296.99Z" fill="#FBFF4B"/>
</svg>
