<svg width="21" height="29" viewBox="0 0 21 29" fill="none" xmlns="http://www.w3.org/2000/svg">
<path d="M1.9664 28.938C2.77698 28.938 3.30236 28.5689 4.57827 27.4746L10.3724 22.4385C10.4325 22.3726 10.5675 22.3726 10.6276 22.4385L16.4367 27.4746C17.7127 28.5689 18.223 28.938 19.0486 28.938C20.2495 28.938 21 28.2129 21 27.0264V4.00781C21 1.38428 19.4389 0 16.4818 0H4.51823C1.56112 0 0 1.38428 0 4.00781V27.0264C0 28.2129 0.750536 28.938 1.9664 28.938ZM3.39242 24.6006C3.19728 24.772 2.95711 24.7192 2.95711 24.4688V4.1792C2.95711 3.12451 3.55754 2.61035 4.7584 2.61035H16.2416C17.4425 2.61035 18.0429 3.12451 18.0429 4.1792V24.4688C18.0429 24.7192 17.8177 24.772 17.6076 24.6006L11.4982 19.4063C10.8678 18.8525 10.1472 18.8525 9.50179 19.4063L3.39242 24.6006Z" fill="#FFFAEA"/>
</svg>
