<svg width="154" height="126" viewBox="0 0 154 126" fill="none" xmlns="http://www.w3.org/2000/svg">
<path d="M22.0959 125.322H133.516C146.478 125.322 154 117.8 154 103.428V34.3192C154 19.9468 146.411 12.4248 131.904 12.4248H69.6459C64.8103 12.4248 61.9224 11.3502 58.1614 8.26079L54.4003 5.17139C49.6319 1.27606 46.1396 0 39.0877 0H20.0811C7.45486 0 0 7.3877 0 21.5587V103.428C0 117.867 7.58918 125.322 22.0959 125.322ZM13.365 22.7004C13.365 16.5887 16.7902 13.365 22.7676 13.365H35.5281C40.2966 13.365 43.1173 14.5068 46.9455 17.5962L50.7065 20.7527C55.4078 24.5137 59.0345 25.857 66.0863 25.857H131.031C137.21 25.857 140.635 29.0807 140.635 35.5281V39.4906H13.365V22.7004ZM22.969 111.957C16.7902 111.957 13.365 108.734 13.365 102.219V51.2438H140.635V102.286C140.635 108.734 137.21 111.957 131.031 111.957H22.969Z" fill="#838383"/>
</svg>
