<svg width="31" height="31" viewBox="0 0 31 31" fill="none" xmlns="http://www.w3.org/2000/svg">
<path d="M14.0533 30.9715H16.9467C18.1297 30.9715 19.0561 30.2303 19.3411 29.0901L19.9113 26.5959L20.2818 26.4533L22.4625 27.8074C23.4602 28.4345 24.6432 28.2634 25.4841 27.4225L27.4795 25.4271C28.3347 24.572 28.4772 23.4032 27.8501 22.4198L26.4961 20.2391L26.6386 19.897L29.1329 19.3126C30.2589 19.0276 31 18.1012 31 16.9182V14.1103C31 12.9274 30.2731 12.0009 29.1329 11.7159L26.6529 11.1172L26.5103 10.7467L27.8644 8.58023C28.4915 7.59678 28.349 6.42805 27.4938 5.55862L25.4984 3.56322C24.6717 2.7223 23.4887 2.56552 22.491 3.17839L20.3103 4.51816L19.9113 4.37563L19.3411 1.86713C19.0561 0.726897 18.1297 0 16.9467 0H14.0533C12.8561 0 11.9297 0.726897 11.6589 1.86713L11.0887 4.37563L10.6897 4.51816L8.50897 3.17839C7.49701 2.56552 6.32828 2.7223 5.50161 3.56322L3.49195 5.55862C2.65103 6.42805 2.49425 7.59678 3.12138 8.58023L4.4754 10.7467L4.33287 11.1172L1.86713 11.7159C0.726897 12.0009 0 12.9274 0 14.1103V16.9182C0 18.1012 0.741149 19.0276 1.86713 19.3126L4.36138 19.897L4.48966 20.2391L3.13563 22.4198C2.50851 23.4032 2.66529 24.572 3.50621 25.4271L5.51586 27.4225C6.34253 28.2634 7.52552 28.4345 8.52322 27.8074L10.7039 26.4533L11.0887 26.5959L11.6589 29.0901C11.9297 30.2303 12.8561 30.9715 14.0533 30.9715ZM14.4239 28.349C14.1816 28.349 14.0533 28.2492 14.0248 28.0354L13.1697 24.5292C12.2717 24.3154 11.4023 23.9448 10.7039 23.503L7.62529 25.3986C7.44 25.5126 7.26897 25.4984 7.09793 25.3274L5.60138 23.8308C5.43034 23.674 5.43034 23.503 5.54437 23.3177L7.44 20.2391C7.04092 19.5549 6.67034 18.6998 6.45655 17.8018L2.93609 16.9609C2.7223 16.9324 2.60828 16.8041 2.60828 16.5618V14.4524C2.60828 14.1959 2.70805 14.0961 2.93609 14.0391L6.4423 13.2124C6.65609 12.2575 7.06943 11.3738 7.42575 10.7324L5.53011 7.6823C5.41609 7.48276 5.41609 7.31172 5.57287 7.14069L7.08368 5.65839C7.25471 5.50161 7.41149 5.4731 7.62529 5.60138L10.6754 7.46851C11.3168 7.06943 12.2717 6.67035 13.1839 6.4423L14.0248 2.93609C14.0533 2.7223 14.1816 2.60828 14.4239 2.60828H16.5761C16.8184 2.60828 16.9324 2.70805 16.9752 2.93609L17.8303 6.45655C18.7568 6.6846 19.5977 7.06943 20.3103 7.46851L23.3605 5.60138C23.5743 5.48736 23.731 5.50161 23.9021 5.67264L25.4129 7.15494C25.5839 7.31172 25.5839 7.48276 25.4556 7.6823L23.5743 10.7324C23.9163 11.3738 24.3439 12.2575 24.5577 13.2124L28.0639 14.0391C28.292 14.0961 28.3775 14.1959 28.3775 14.4524V16.5618C28.3775 16.8041 28.2777 16.9324 28.0639 16.9609L24.5434 17.8018C24.3297 18.6998 23.9448 19.5692 23.5457 20.2391L25.4414 23.3034C25.5554 23.503 25.5554 23.6598 25.3844 23.8166L23.8878 25.3274C23.7168 25.4984 23.5457 25.5126 23.3605 25.3986L20.2961 23.503C19.5834 23.9448 18.771 24.3012 17.8303 24.5292L16.9752 28.0354C16.9324 28.2492 16.8184 28.349 16.5761 28.349H14.4239ZM15.5071 20.8947C18.4717 20.8947 20.909 18.4575 20.909 15.4786C20.909 12.5283 18.4717 10.091 15.5071 10.091C12.5283 10.091 10.0768 12.5283 10.0768 15.4786C10.0768 18.4575 12.5283 20.8947 15.5071 20.8947ZM15.5071 18.429C13.8823 18.429 12.5568 17.1034 12.5568 15.4786C12.5568 13.8823 13.8966 12.5568 15.5071 12.5568C17.0892 12.5568 18.4147 13.8823 18.4147 15.4786C18.4147 17.0892 17.0892 18.429 15.5071 18.429Z" fill="#FFFAEA"/>
</svg>
