<svg width="19" height="21" viewBox="0 0 19 21" fill="none" xmlns="http://www.w3.org/2000/svg">
<path d="M17.154 1.94058C17.2798 2.06685 17.3505 2.23787 17.3505 2.41616C17.3505 2.59445 17.2798 2.76547 17.154 2.89174L15.7488 4.29827L13.0543 1.60376L14.4594 0.197229C14.5858 0.0709434 14.7571 0 14.9357 0C15.1143 0 15.2856 0.0709434 15.412 0.197229L17.154 1.93923V1.94058ZM14.7963 5.24944L12.1017 2.55493L2.92289 11.7351C2.84874 11.8093 2.79292 11.8997 2.75988 11.9992L1.67533 15.2515C1.65567 15.3108 1.65287 15.3743 1.66727 15.4351C1.68166 15.4959 1.71268 15.5515 1.75685 15.5957C1.80103 15.6398 1.85661 15.6709 1.9174 15.6853C1.97818 15.6997 2.04178 15.6969 2.10107 15.6772L5.35334 14.5927C5.45272 14.56 5.54313 14.5046 5.6174 14.431L14.7963 5.24944Z" fill="#FFFAEA"/>
<path d="M1 19.6157H18" stroke="#FFFAEA" stroke-width="2" stroke-linecap="round"/>
</svg>
