<svg width="42" height="42" viewBox="0 0 42 42" fill="none" xmlns="http://www.w3.org/2000/svg">
<path d="M0 3.00819C0 1.34656 1.38075 -6.10352e-05 3.08437 -6.10352e-05H38.9156C40.6192 -6.10352e-05 42 1.34656 42 3.00819V38.9917C42 40.6533 40.6192 41.9999 38.9156 41.9999H3.08437C1.38075 41.9999 0 40.6533 0 38.9917V3.00819ZM12.9754 35.1592V16.1936H6.67275V35.1592H12.9754ZM9.82538 13.6027C12.0225 13.6027 13.3901 12.1484 13.3901 10.3267C13.3507 8.46556 12.0251 7.05069 9.86738 7.05069C7.70963 7.05069 6.3 8.46819 6.3 10.3267C6.3 12.1484 7.66763 13.6027 9.78337 13.6027H9.82538ZM22.7089 35.1592V24.5673C22.7089 24.0003 22.7509 23.4333 22.9189 23.0291C23.373 21.8977 24.4099 20.7243 26.1529 20.7243C28.434 20.7243 29.3449 22.4621 29.3449 25.0136V35.1592H35.6475V24.2812C35.6475 18.4537 32.5395 15.7447 28.392 15.7447C25.0477 15.7447 23.5489 17.5822 22.7089 18.8763V18.9419H22.6669L22.7089 18.8763V16.1936H16.4089C16.4876 17.9733 16.4089 35.1592 16.4089 35.1592H22.7089Z" fill="#0A66C2"/>
</svg>
