<svg width="20" height="20" viewBox="0 0 20 20" fill="none" xmlns="http://www.w3.org/2000/svg">
<path d="M0.93934 17.2028C0.353553 17.7886 0.353553 18.7383 0.93934 19.3241C1.52513 19.9099 2.47487 19.9099 3.06066 19.3241L0.93934 17.2028ZM19.7635 1.99997C19.7635 1.17155 19.0919 0.499972 18.2635 0.499973L4.76346 0.499972C3.93503 0.499972 3.26346 1.17154 3.26346 1.99997C3.26346 2.8284 3.93503 3.49997 4.76346 3.49997H16.7635V15.5C16.7635 16.3284 17.435 17 18.2635 17C19.0919 17 19.7635 16.3284 19.7635 15.5L19.7635 1.99997ZM3.06066 19.3241L19.3241 3.06063L17.2028 0.939312L0.93934 17.2028L3.06066 19.3241Z" fill="white"/>
</svg>
