<svg width="31" height="29" viewBox="0 0 31 29" fill="none" xmlns="http://www.w3.org/2000/svg">
<path d="M6.07712 28.7161C7.93365 28.7161 11.6868 26.913 14.5183 24.8962C23.9479 25.0698 31 19.6204 31 12.4614C31 5.55623 24.0948 0 15.4933 0C6.89186 0 0 5.55623 0 12.4614C0 16.8557 2.72469 20.7691 6.90521 22.8126C6.33089 23.8944 5.31581 25.377 4.74149 26.1517C3.88669 27.2869 4.47436 28.7161 6.07712 28.7161ZM7.69324 25.9513C7.5196 26.0181 7.45282 25.9246 7.57303 25.7777C8.2542 24.9496 9.25592 23.6273 9.75011 22.6924C10.1508 21.9578 10.0172 21.3167 9.16243 20.916C5.08876 19.006 2.72469 15.9474 2.72469 12.4614C2.72469 7.0922 8.38776 2.72469 15.4933 2.72469C22.5989 2.72469 28.262 7.0922 28.262 12.4614C28.262 17.8307 22.5989 22.2115 15.4933 22.2115C15.2529 22.2115 14.8789 22.1982 14.4248 22.1982C13.8505 22.1848 13.4231 22.3585 12.8888 22.7725C11.2727 23.9746 8.88195 25.4705 7.69324 25.9513Z" fill="#FFFAEA"/>
</svg>
