<svg width="100" height="100" viewBox="0 0 100 100" fill="none" xmlns="http://www.w3.org/2000/svg">
<path d="M85.0062 14.5378C80.4225 9.9097 74.9631 6.24063 68.9464 3.74468C62.9298 1.24873 56.4763 -0.0241301 49.9625 0.000346407C22.6687 0.000346407 0.425 22.2378 0.4 49.5378C0.4 58.2816 2.6875 66.7878 7.00625 74.3191L0 100L26.275 93.1128C33.5405 97.0768 41.686 99.1508 49.9625 99.1441H49.9875C77.2875 99.1441 99.525 76.9066 99.55 49.5816C99.5556 43.0695 98.2728 36.6206 95.7757 30.6062C93.2786 24.5919 89.6227 19.131 85.0062 14.5378ZM49.9625 90.7566C42.5823 90.7508 35.3389 88.7651 28.9875 85.0066L27.4875 84.1066L11.9 88.1941L16.0625 72.9878L15.0875 71.4191C10.9613 64.8586 8.77904 57.263 8.79375 49.5128C8.79375 26.8503 27.275 8.36285 49.9875 8.36285C55.3984 8.35314 60.7577 9.41456 65.7564 11.4859C70.7551 13.5573 75.2944 16.5976 79.1125 20.4316C82.9431 24.2513 85.98 28.7912 88.0481 33.7899C90.1162 38.7885 91.1747 44.147 91.1625 49.5566C91.1375 72.3003 72.6562 90.7566 49.9625 90.7566ZM72.5563 59.9191C71.325 59.3003 65.2437 56.3066 64.1 55.8816C62.9625 55.4753 62.1312 55.2628 61.3187 56.5003C60.4875 57.7316 58.1125 60.5378 57.4 61.3441C56.6875 62.1753 55.95 62.2691 54.7125 61.6566C53.4812 61.0316 49.4875 59.7316 44.7625 55.5003C41.075 52.2191 38.6063 48.1566 37.8688 46.9253C37.1563 45.6878 37.8 45.0253 38.4187 44.4066C38.9625 43.8566 39.65 42.9566 40.2687 42.2441C40.8937 41.5316 41.1 41.0066 41.5062 40.1816C41.9125 39.3441 41.7187 38.6316 41.4125 38.0128C41.1 37.3941 38.6312 31.2878 37.5875 28.8253C36.5875 26.3941 35.5687 26.7316 34.8062 26.7003C34.0937 26.6566 33.2625 26.6566 32.4313 26.6566C31.8036 26.6726 31.186 26.8179 30.6171 27.0836C30.0482 27.3492 29.5402 27.7294 29.125 28.2003C27.9875 29.4378 24.8063 32.4316 24.8063 38.5378C24.8063 44.6441 29.2437 50.5128 29.8687 51.3441C30.4812 52.1753 38.5812 64.6691 51.0125 70.0441C53.95 71.3253 56.2625 72.0816 58.0688 72.6566C61.0375 73.6066 63.7187 73.4628 65.8562 73.1566C68.2312 72.7941 73.175 70.1566 74.2188 67.2628C75.2438 64.3628 75.2438 61.8878 74.9313 61.3691C74.625 60.8441 73.7938 60.5378 72.5563 59.9191Z" fill="#00B95F"/>
</svg>
