<svg width="42" height="42" viewBox="0 0 42 42" fill="none" xmlns="http://www.w3.org/2000/svg">
<path d="M0 21C0 9.40202 9.40202 0 21 0C32.598 0 42 9.40202 42 21C42 32.598 32.598 42 21 42C9.40202 42 0 32.598 0 21Z" fill="#DF5F15"/>
<path d="M10.9565 17.1569V24.8431C10.9565 25.2254 10.7698 25.5919 10.4374 25.8622C10.105 26.1325 9.65421 26.2843 9.18414 26.2843C8.71408 26.2843 8.26327 26.1325 7.93088 25.8622C7.5985 25.5919 7.41176 25.2254 7.41176 24.8431V17.1569C7.41176 16.7746 7.5985 16.4081 7.93088 16.1378C8.26327 15.8675 8.71408 15.7157 9.18414 15.7157C9.65421 15.7157 10.105 15.8675 10.4374 16.1378C10.7698 16.4081 10.9565 16.7746 10.9565 17.1569ZM15.0921 8.02941C14.622 8.02941 14.1712 8.18125 13.8388 8.45152C13.5064 8.7218 13.3197 9.08836 13.3197 9.47059V32.5294C13.3197 32.9116 13.5064 33.2782 13.8388 33.5485C14.1712 33.8187 14.622 33.9706 15.0921 33.9706C15.5621 33.9706 16.0129 33.8187 16.3453 33.5485C16.6777 33.2782 16.8645 32.9116 16.8645 32.5294V9.47059C16.8645 9.08836 16.6777 8.7218 16.3453 8.45152C16.0129 8.18125 15.5621 8.02941 15.0921 8.02941ZM21 11.8725C20.5299 11.8725 20.0791 12.0244 19.7467 12.2947C19.4144 12.5649 19.2276 12.9315 19.2276 13.3137V28.6863C19.2276 29.0685 19.4144 29.4351 19.7467 29.7053C20.0791 29.9756 20.5299 30.1275 21 30.1275C21.4701 30.1275 21.9209 29.9756 22.2533 29.7053C22.5856 29.4351 22.7724 29.0685 22.7724 28.6863V13.3137C22.7724 12.9315 22.5856 12.5649 22.2533 12.2947C21.9209 12.0244 21.4701 11.8725 21 11.8725ZM26.9079 15.7157C26.4379 15.7157 25.9871 15.8675 25.6547 16.1378C25.3223 16.4081 25.1355 16.7746 25.1355 17.1569V24.8431C25.1355 25.2254 25.3223 25.5919 25.6547 25.8622C25.9871 26.1325 26.4379 26.2843 26.9079 26.2843C27.378 26.2843 27.8288 26.1325 28.1612 25.8622C28.4936 25.5919 28.6803 25.2254 28.6803 24.8431V17.1569C28.6803 16.7746 28.4936 16.4081 28.1612 16.1378C27.8288 15.8675 27.378 15.7157 26.9079 15.7157ZM32.8159 13.7941C32.3458 13.7941 31.895 13.946 31.5626 14.2162C31.2302 14.4865 31.0435 14.8531 31.0435 15.2353V26.7647C31.0435 27.1469 31.2302 27.5135 31.5626 27.7838C31.895 28.054 32.3458 28.2059 32.8159 28.2059C33.2859 28.2059 33.7367 28.054 34.0691 27.7838C34.4015 27.5135 34.5882 27.1469 34.5882 26.7647V15.2353C34.5882 14.8531 34.4015 14.4865 34.0691 14.2162C33.7367 13.946 33.2859 13.7941 32.8159 13.7941Z" fill="#121212"/>
</svg>
